# xmcd
#
# Track frame offsets: 
#        150
#        12765
#        23145
#        37187
#        49635
#        63097
#        76672
#        89437
#        104657
#        118897
#        134210
#        145945
#        160620
#        172012
#        186022
#        201859
#
# Disc length: 2871 seconds
#
# Revision: 5
# Processed by: cddbd v1.5.2PL0 Copyright (c) Steve Scherf et al.
# Submitted via: ExactAudioCopy v1.0b1
#
DISCID=dc0b3510
DTITLE=John Lee Hooker - The Complete 50's Chess Recordings\\\\Disc 1
DYEAR=1998
DGENRE=Blues
TTITLE0=Mad Man Blues (mono)
TTITLE1=Hey Boogie (mono)
TTITLE2=Louise (mono)
TTITLE3=High Priced Woman (mono)
TTITLE4=Union Station Blues (mono)
TTITLE5=Ground Hog Blues (mono)
TTITLE6=Leave My Wife Alone (mono)
TTITLE7=Rambin' By Myself (mono)
TTITLE8=Dreamin' Blues (mono)
TTITLE9=Just Me And My Telephone (mono)
TTITLE10=Walkin' The Boogie (mono)
TTITLE11=Sugar Mama (mono)
TTITLE12=Please Don't Go (mono)
TTITLE13=I Don't Want Your Money (mono)
TTITLE14=Hey Baby (mono)
TTITLE15=Bluebird (mono)
EXTD=
EXTT0=
EXTT1=
EXTT2=
EXTT3=
EXTT4=
EXTT5=
EXTT6=
EXTT7=
EXTT8=
EXTT9=
EXTT10=
EXTT11=
EXTT12=
EXTT13=
EXTT14=
EXTT15=
PLAYORDER=
